<?xml version="1.0" encoding="UTF-8" standalone="no"?>
<svg width="32" height="32" viewBox="0 0 32 32" fill="none" xmlns="http://www.w3.org/2000/svg">
  <rect width="32" height="32" rx="4" fill="#2F6EB5"/>
  <path d="M16 6C10.48 6 6 10.48 6 16C6 21.52 10.48 26 16 26C21.52 26 26 21.52 26 16C26 10.48 21.52 6 16 6ZM16 23C12.14 23 9 19.86 9 16C9 12.14 12.14 9 16 9C19.86 9 23 12.14 23 16C23 19.86 19.86 23 16 23Z" fill="white"/>
  <path d="M17 11H15V17L20 19.5L21 17.5L17 15.5V11Z" fill="white"/>
  <path d="M23 14.5L22 12.5L24 12L25 14L23 14.5Z" fill="#FFD700"/>
  <path d="M9 14.5L10 12.5L8 12L7 14L9 14.5Z" fill="#FFD700"/>
</svg>